<svg width="65" height="58" viewBox="0 0 65 58" fill="none" xmlns="http://www.w3.org/2000/svg">
<path id="Vector" d="M12.8734 42.596L12.675 42.9245L12.9411 43.2011C17.6511 48.097 24.6757 51.2153 32.5 51.2153C40.3243 51.2153 47.3489 48.097 52.0589 43.2011L52.325 42.9245L52.1266 42.596C49.5673 38.3574 44.5774 35.4618 38.7903 35.4618C38.4274 35.4618 38.0694 35.5149 37.7306 35.6056L37.7306 35.6055L37.7222 35.6079C36.067 36.0819 34.3185 36.3839 32.5 36.3839C32.4571 36.3839 32.401 36.3859 32.3425 36.3963L32.3409 36.3966C32.3058 36.4028 32.1587 36.4288 32.0374 36.553C31.9597 36.6325 31.8976 36.7482 31.8909 36.8887C31.89 36.9074 31.8901 36.9254 31.8911 36.9428C31.3727 36.803 30.8779 36.6697 30.4124 36.5445C29.2218 36.2245 28.222 35.9578 27.5097 35.771C27.1538 35.6776 26.8681 35.6039 26.6658 35.5532C26.565 35.528 26.4824 35.5079 26.4212 35.4939C26.391 35.487 26.3626 35.4808 26.3383 35.476C26.3353 35.4754 26.273 35.4618 26.2097 35.4618C20.4226 35.4618 15.4327 38.3574 12.8734 42.596ZM51.565 43.3363L51.6065 43.3481L51.6455 43.3592L51.6476 43.3598L51.6503 43.3606L51.6541 43.3616L51.6579 43.3627C51.7023 43.3705 51.8521 43.2677 51.9537 43.0998C52.0274 42.9779 52.0757 42.8217 52.0398 42.6484C52.0234 42.5689 51.9892 42.4859 51.9316 42.4009L51.9276 42.3998L51.9258 42.3993L51.9241 42.3988L51.9225 42.3983L51.9213 42.398L51.9182 42.3971L51.8798 42.3862L51.8353 42.3735L51.8353 42.3734L51.8301 42.372L51.8279 42.3714L51.4231 42.2561C51.3805 42.2439 51.3354 42.231 51.2878 42.2174C48.7221 38.4843 44.1147 35.9618 38.7903 35.9618C38.4758 35.9618 38.1613 36.0079 37.8599 36.0886C36.4626 36.4887 34.9936 36.7707 33.4678 36.8565C33.3039 36.7972 33.1614 36.7435 33.042 36.6959C32.937 36.654 32.8554 36.619 32.7957 36.5908C32.7281 36.5589 32.7133 36.5472 32.7237 36.5549C32.7285 36.5585 32.741 36.568 32.7568 36.5836C32.771 36.5976 32.8004 36.6286 32.828 36.6769C32.8508 36.7169 32.8827 36.7869 32.8891 36.8794C32.7598 36.8824 32.6301 36.8839 32.5 36.8839C32.3495 36.8839 32.358 36.9255 32.5 37.0018C32.5743 37.0418 32.6852 37.0912 32.8291 37.1492C32.8213 37.1632 32.8129 37.1767 32.804 37.1894L51.565 43.3363ZM0.5 28.585C0.5 13.1286 14.7603 0.5 32.5 0.5C50.2397 0.5 64.5 13.1286 64.5 28.585C64.5 44.0414 50.2397 56.67 32.5 56.67C14.7603 56.67 0.5 44.0414 0.5 28.585ZM44.5323 21.2082C44.5323 15.272 39.0829 10.5652 32.5 10.5652C25.9171 10.5652 20.4677 15.272 20.4677 21.2082C20.4677 27.1445 25.9171 31.8513 32.5 31.8513C39.0829 31.8513 44.5323 27.1445 44.5323 21.2082Z" fill="white" stroke="white"/>
</svg>
